<svg xmlns="http://www.w3.org/2000/svg" width="21.568" height="20.33" viewBox="0 0 21.568 20.33">
  <g transform="translate(-1490.515 -80.829)">
    <path d="M1974.215,376.07H1955.5q.005.544.006,1.088a1.722,1.722,0,0,1,.017.254h.14l2.507,8.146v9.284a.671.671,0,0,0,1.193.425l1.544-1.913,1.421,1.893a.67.67,0,0,0,1.043.03l1.5-1.752,1.507,1.757a.671.671,0,0,0,1.045-.035l1.42-1.893,1.545,1.913v0a.67.67,0,0,0,1.19-.422v-9.284l2.507-8.146h.133Zm-11.41,9.814,1.2,1.491-1.283,1.588-1.282-1.494Zm-2.244.555-.864-1.007,1.32-1.762.931,1.152Zm3.132-1.591,1.18-1.376,1.179,1.375-1.18,1.46Zm3.245,1.033,1.351,1.577-1.279,1.5-1.277-1.58Zm.856-1.061.93-1.152,1.31,1.747-.864,1.011Zm-.886-1.035-1.152-1.343,1.093-1.275,1.046,1.4Zm-3.374-6.374h2.677v2.438l-1.338,1.561-1.338-1.561Zm.456,5.028-1.154,1.346-.989-1.224,1.048-1.4Zm-1.8-5.028v2.459l-1.212,1.617-3.293-4.076Zm-3.1,6.591-1.35-4.388,2.407,2.979Zm.584,3.467-.168.2v-.393Zm-.168,5.476v-1.455l.566.754Zm.189-3.44.863-1.006,1.308,1.525-.924,1.143Zm3.2,4.266-1.12-1.5.982-1.215,1.228,1.434Zm.72-3.774,1.257-1.557,1.252,1.551-1.255,1.468Zm3.234,3.768-1.1-1.278,1.229-1.438.988,1.224Zm1.95-2.6-.932-1.153,1.305-1.528.873,1.018Zm1.435,1.776-.564-.7.564-.753Zm0-5.278-.181-.211.181-.211Zm.418-3.663-1.058-1.41,2.409-2.985Zm-1.887-2.515-1.213-1.617v-2.459h4.5Z" transform="translate(-463.518 -294.359)" fill="#202020" fill-rule="evenodd"/>
    <rect width="21.568" height="2.224" rx="1.112" transform="translate(1490.515 80.829)" fill="#202020"/>
  </g>
</svg>
